<svg width="18" height="18" viewBox="0 0 18 18" fill="none" xmlns="http://www.w3.org/2000/svg">
<path d="M4.40039 13V7C4.40039 6.66863 4.66863 6.40039 5 6.40039C5.33137 6.40039 5.59961 6.66863 5.59961 7V13C5.59961 13.3314 5.33137 13.5996 5 13.5996C4.66863 13.5996 4.40039 13.3314 4.40039 13ZM8.40039 13V5C8.40039 4.66863 8.66863 4.40039 9 4.40039C9.33137 4.40039 9.59961 4.66863 9.59961 5V13C9.59961 13.3314 9.33137 13.5996 9 13.5996C8.66863 13.5996 8.40039 13.3314 8.40039 13ZM12.4004 13V9C12.4004 8.66863 12.6686 8.40039 13 8.40039C13.3314 8.40039 13.5996 8.66863 13.5996 9V13C13.5996 13.3314 13.3314 13.5996 13 13.5996C12.6686 13.5996 12.4004 13.3314 12.4004 13Z" fill="#333333"/>
</svg>
