<svg width="18" height="18" viewBox="0 0 18 18" fill="none" xmlns="http://www.w3.org/2000/svg">
<path d="M8.40039 13V5C8.40039 4.66863 8.66863 4.40039 9 4.40039C9.33137 4.40039 9.59961 4.66863 9.59961 5V13C9.59961 13.3314 9.33137 13.5996 9 13.5996C8.66863 13.5996 8.40039 13.3314 8.40039 13ZM4.40039 11V7C4.40039 6.66863 4.66863 6.40039 5 6.40039C5.33137 6.40039 5.59961 6.66863 5.59961 7V11C5.59961 11.3314 5.33137 11.5996 5 11.5996C4.66863 11.5996 4.40039 11.3314 4.40039 11ZM12.4004 11V7C12.4004 6.66863 12.6686 6.40039 13 6.40039C13.3314 6.40039 13.5996 6.66863 13.5996 7V11C13.5996 11.3314 13.3314 11.5996 13 11.5996C12.6686 11.5996 12.4004 11.3314 12.4004 11Z" fill="#333333"/>
</svg>
