<svg width="18" height="18" viewBox="0 0 18 18" fill="none" xmlns="http://www.w3.org/2000/svg">
<path d="M11 12.4004C11.3314 12.4004 11.5996 12.6686 11.5996 13C11.5996 13.3314 11.3314 13.5996 11 13.5996H7C6.66863 13.5996 6.40039 13.3314 6.40039 13C6.40039 12.6686 6.66863 12.4004 7 12.4004H11ZM13 8.40039C13.3314 8.40039 13.5996 8.66863 13.5996 9C13.5996 9.33137 13.3314 9.59961 13 9.59961H5C4.66863 9.59961 4.40039 9.33137 4.40039 9C4.40039 8.66863 4.66863 8.40039 5 8.40039H13ZM11 4.40039C11.3314 4.40039 11.5996 4.66863 11.5996 5C11.5996 5.33137 11.3314 5.59961 11 5.59961H7C6.66863 5.59961 6.40039 5.33137 6.40039 5C6.40039 4.66863 6.66863 4.40039 7 4.40039H11Z" fill="#333333"/>
</svg>
