<svg width="18" height="18" viewBox="0 0 18 18" fill="none" xmlns="http://www.w3.org/2000/svg">
<path d="M8.40039 13V5C8.40039 4.66863 8.66863 4.40039 9 4.40039C9.33137 4.40039 9.59961 4.66863 9.59961 5V13C9.59961 13.3314 9.33137 13.5996 9 13.5996C8.66863 13.5996 8.40039 13.3314 8.40039 13ZM12.4004 11V5C12.4004 4.66863 12.6686 4.40039 13 4.40039C13.3314 4.40039 13.5996 4.66863 13.5996 5V11C13.5996 11.3314 13.3314 11.5996 13 11.5996C12.6686 11.5996 12.4004 11.3314 12.4004 11ZM4.40039 9V5C4.40039 4.66863 4.66863 4.40039 5 4.40039C5.33137 4.40039 5.59961 4.66863 5.59961 5V9C5.59961 9.33137 5.33137 9.59961 5 9.59961C4.66863 9.59961 4.40039 9.33137 4.40039 9Z" fill="#333333"/>
</svg>
