<svg width="18" height="18" viewBox="0 0 18 18" fill="none" xmlns="http://www.w3.org/2000/svg">
<path d="M9 12.4004C9.33137 12.4004 9.59961 12.6686 9.59961 13C9.59961 13.3314 9.33137 13.5996 9 13.5996H5C4.66863 13.5996 4.40039 13.3314 4.40039 13C4.40039 12.6686 4.66863 12.4004 5 12.4004H9ZM13 8.40039C13.3314 8.40039 13.5996 8.66863 13.5996 9C13.5996 9.33137 13.3314 9.59961 13 9.59961H5C4.66863 9.59961 4.40039 9.33137 4.40039 9C4.40039 8.66863 4.66863 8.40039 5 8.40039H13ZM11 4.40039C11.3314 4.40039 11.5996 4.66863 11.5996 5C11.5996 5.33137 11.3314 5.59961 11 5.59961H5C4.66863 5.59961 4.40039 5.33137 4.40039 5C4.40039 4.66863 4.66863 4.40039 5 4.40039H11Z" fill="#333333"/>
</svg>
