<svg width="16" height="16" viewBox="0 0 16 16" fill="none" xmlns="http://www.w3.org/2000/svg">
<path d="M8 9.26172C8.05383 9.26172 8.1356 9.27645 8.30957 9.40918C8.49502 9.55069 8.71741 9.7721 9.06055 10.1152L10.0586 11.1133C10.4018 11.4565 10.6231 11.6798 10.7646 11.8652C10.897 12.0388 10.9121 12.12 10.9121 12.1738C10.9121 12.2277 10.8974 12.3094 10.7646 12.4834C10.6231 12.6688 10.4017 12.8912 10.0586 13.2344L9.06055 14.2324C8.71741 14.5756 8.49501 14.797 8.30957 14.9385C8.1356 15.0712 8.05383 15.0859 8 15.0859C7.94617 15.0859 7.8644 15.0712 7.69043 14.9385C7.50499 14.797 7.28259 14.5756 6.93945 14.2324L5.94141 13.2344C5.59826 12.8912 5.37686 12.6688 5.23535 12.4834C5.10262 12.3094 5.08789 12.2277 5.08789 12.1738C5.08791 12.12 5.10299 12.0388 5.23535 11.8652C5.37687 11.6798 5.59816 11.4565 5.94141 11.1133L6.93945 10.1152C7.28259 9.7721 7.50498 9.55069 7.69043 9.40918C7.8644 9.27645 7.94617 9.26172 8 9.26172ZM3.82617 5.08789C3.87996 5.08791 3.96119 5.10299 4.13477 5.23535C4.32024 5.37687 4.54348 5.59816 4.88672 5.94141L5.88477 6.93945C6.2279 7.28259 6.44931 7.50498 6.59082 7.69043C6.72355 7.8644 6.73828 7.94617 6.73828 8C6.73828 8.05383 6.72355 8.1356 6.59082 8.30957C6.44931 8.49502 6.2279 8.71741 5.88477 9.06055L4.88672 10.0586C4.54348 10.4018 4.32024 10.6231 4.13477 10.7646C3.96119 10.897 3.87996 10.9121 3.82617 10.9121C3.77234 10.9121 3.69057 10.8974 3.5166 10.7646C3.33115 10.6231 3.10877 10.4017 2.76562 10.0586L1.76758 9.06055C1.42444 8.71741 1.20304 8.49501 1.06152 8.30957C0.928791 8.1356 0.914062 8.05383 0.914062 8C0.914062 7.94617 0.928791 7.8644 1.06152 7.69043C1.20304 7.50499 1.42444 7.28259 1.76758 6.93945L2.76562 5.94141C3.10877 5.59826 3.33115 5.37686 3.5166 5.23535C3.69057 5.10262 3.77234 5.08789 3.82617 5.08789ZM12.1738 5.08789C12.2277 5.08789 12.3094 5.10262 12.4834 5.23535C12.6688 5.37686 12.8912 5.59826 13.2344 5.94141L14.2324 6.93945C14.5756 7.28259 14.797 7.50499 14.9385 7.69043C15.0712 7.8644 15.0859 7.94617 15.0859 8C15.0859 8.05383 15.0712 8.1356 14.9385 8.30957C14.797 8.49501 14.5756 8.71741 14.2324 9.06055L13.2344 10.0586C12.8912 10.4017 12.6688 10.6231 12.4834 10.7646C12.3094 10.8974 12.2277 10.9121 12.1738 10.9121C12.12 10.9121 12.0388 10.897 11.8652 10.7646C11.6798 10.6231 11.4565 10.4018 11.1133 10.0586L10.1152 9.06055C9.7721 8.71741 9.55069 8.49502 9.40918 8.30957C9.27645 8.1356 9.26172 8.05383 9.26172 8C9.26172 7.94617 9.27645 7.8644 9.40918 7.69043C9.55069 7.50498 9.7721 7.28259 10.1152 6.93945L11.1133 5.94141C11.4565 5.59816 11.6798 5.37687 11.8652 5.23535C12.0388 5.10299 12.12 5.08791 12.1738 5.08789ZM8 0.914062C8.05383 0.914062 8.1356 0.928791 8.30957 1.06152C8.49501 1.20304 8.71741 1.42444 9.06055 1.76758L10.0586 2.76562C10.4017 3.10877 10.6231 3.33115 10.7646 3.5166C10.8974 3.69057 10.9121 3.77234 10.9121 3.82617C10.9121 3.87996 10.897 3.96119 10.7646 4.13477C10.6231 4.32024 10.4018 4.54348 10.0586 4.88672L9.06055 5.88477C8.71741 6.2279 8.49502 6.44931 8.30957 6.59082C8.1356 6.72355 8.05383 6.73828 8 6.73828C7.94617 6.73828 7.8644 6.72355 7.69043 6.59082C7.50498 6.44931 7.28259 6.2279 6.93945 5.88477L5.94141 4.88672C5.59816 4.54348 5.37687 4.32024 5.23535 4.13477C5.10299 3.96119 5.08791 3.87996 5.08789 3.82617C5.08789 3.77234 5.10262 3.69057 5.23535 3.5166C5.37686 3.33115 5.59826 3.10877 5.94141 2.76562L6.93945 1.76758C7.28259 1.42444 7.50499 1.20304 7.69043 1.06152C7.8644 0.928791 7.94617 0.914062 8 0.914062Z" stroke="#733AFF"/>
</svg>
