<svg width="18" height="18" viewBox="0 0 18 18" fill="none" xmlns="http://www.w3.org/2000/svg">
<path d="M14 15.5V13.5H4V15.5C4 15.7761 3.77614 16 3.5 16C3.22386 16 3 15.7761 3 15.5V13C3 12.7239 3.22386 12.5 3.5 12.5H14.5C14.7761 12.5 15 12.7239 15 13V15.5C15 15.7761 14.7761 16 14.5 16C14.2239 16 14 15.7761 14 15.5ZM12 8.5C12.2761 8.5 12.5 8.72386 12.5 9C12.5 9.27614 12.2761 9.5 12 9.5H6C5.72386 9.5 5.5 9.27614 5.5 9C5.5 8.72386 5.72386 8.5 6 8.5H12ZM3 2.5C3 2.22386 3.22386 2 3.5 2C3.77614 2 4 2.22386 4 2.5V4.5H14V2.5C14 2.22386 14.2239 2 14.5 2C14.7761 2 15 2.22386 15 2.5V5C15 5.27614 14.7761 5.5 14.5 5.5H3.5C3.22386 5.5 3 5.27614 3 5V2.5Z" fill="#333333"/>
</svg>
