<svg width="18" height="18" viewBox="0 0 18 18" fill="none" xmlns="http://www.w3.org/2000/svg">
<path fill-rule="evenodd" clip-rule="evenodd" d="M13.2548 2.28662C13.4338 2.46566 13.4338 2.75594 13.2548 2.93498C11.7198 4.46995 10.8592 5.33055 9.32423 6.86551C9.23825 6.95149 9.12164 6.99979 9.00005 6.99979C8.87846 6.99979 8.76185 6.95149 8.67587 6.86551L4.74534 2.93498C4.5663 2.75594 4.5663 2.46566 4.74534 2.28662C4.92438 2.10758 5.21466 2.10758 5.3937 2.28662L9.00005 5.89297L12.6064 2.28662C12.7854 2.10758 13.0757 2.10758 13.2548 2.28662Z" fill="#333333"/>
<path fill-rule="evenodd" clip-rule="evenodd" d="M13.2548 15.7134C13.4338 15.5343 13.4338 15.2441 13.2548 15.065L9.32423 11.1345C9.23825 11.0485 9.12164 11.0002 9.00005 11.0002C8.87846 11.0002 8.76185 11.0485 8.67587 11.1345L4.74534 15.065C4.5663 15.2441 4.5663 15.5343 4.74534 15.7134C4.92438 15.8924 5.21466 15.8924 5.3937 15.7134L9.00005 12.107L12.6064 15.7134C12.7854 15.8924 13.0757 15.8924 13.2548 15.7134Z" fill="#333333"/>
</svg>
