<svg width="16" height="16" viewBox="0 0 16 16" fill="none" xmlns="http://www.w3.org/2000/svg">
<path d="M6.58579 1.41421C7.25245 0.747547 7.58579 0.414214 8 0.414214C8.41421 0.414214 8.74755 0.747547 9.41421 1.41421L10.4119 2.41187C11.0785 3.07854 11.4119 3.41187 11.4119 3.82609C11.4119 4.2403 11.0785 4.57363 10.4119 5.2403L9.41421 6.23796C8.74755 6.90463 8.41421 7.23796 8 7.23796C7.58579 7.23796 7.25245 6.90463 6.58579 6.23796L5.58813 5.2403C4.92146 4.57363 4.58813 4.2403 4.58813 3.82609C4.58813 3.41187 4.92146 3.07854 5.58813 2.41187L6.58579 1.41421Z" fill="#733AFF"/>
<path d="M6.58579 9.76204C7.25245 9.09537 7.58579 8.76204 8 8.76204C8.41421 8.76204 8.74755 9.09537 9.41421 9.76204L10.4119 10.7597C11.0785 11.4264 11.4119 11.7597 11.4119 12.1739C11.4119 12.5881 11.0785 12.9215 10.4119 13.5881L9.41421 14.5858C8.74755 15.2525 8.41421 15.5858 8 15.5858C7.58579 15.5858 7.25245 15.2525 6.58579 14.5858L5.58813 13.5881C4.92146 12.9215 4.58813 12.5881 4.58813 12.1739C4.58813 11.7597 4.92146 11.4264 5.58813 10.7597L6.58579 9.76204Z" fill="#733AFF"/>
<path d="M1.41421 9.41421C0.747547 8.74755 0.414214 8.41421 0.414214 8C0.414214 7.58579 0.747547 7.25245 1.41421 6.58579L2.41187 5.58813C3.07854 4.92146 3.41187 4.58813 3.82609 4.58813C4.2403 4.58813 4.57363 4.92146 5.2403 5.58813L6.23796 6.58579C6.90463 7.25245 7.23796 7.58579 7.23796 8C7.23796 8.41421 6.90463 8.74755 6.23796 9.41421L5.2403 10.4119C4.57363 11.0785 4.2403 11.4119 3.82609 11.4119C3.41187 11.4119 3.07854 11.0785 2.41187 10.4119L1.41421 9.41421Z" fill="#733AFF"/>
<path d="M9.76204 9.41421C9.09537 8.74755 8.76204 8.41421 8.76204 8C8.76204 7.58579 9.09537 7.25245 9.76204 6.58579L10.7597 5.58813C11.4264 4.92146 11.7597 4.58813 12.1739 4.58813C12.5881 4.58813 12.9215 4.92146 13.5881 5.58813L14.5858 6.58579C15.2525 7.25245 15.5858 7.58579 15.5858 8C15.5858 8.41421 15.2525 8.74755 14.5858 9.41421L13.5881 10.4119C12.9215 11.0785 12.5881 11.4119 12.1739 11.4119C11.7597 11.4119 11.4264 11.0785 10.7597 10.4119L9.76204 9.41421Z" fill="#733AFF"/>
</svg>
