<svg width="20" height="20" viewBox="0 0 20 20" fill="none" xmlns="http://www.w3.org/2000/svg">
<path fill-rule="evenodd" clip-rule="evenodd" d="M5.29963 4.63218C8.18538 1.7886 12.8616 1.78998 15.748 4.63209C18.64 7.47972 18.6399 12.1023 15.7481 14.9508C12.8615 17.7942 8.18622 17.7942 5.29963 14.9508C5.05372 14.7086 5.05073 14.3128 5.29297 14.0669C5.5352 13.821 5.93091 13.818 6.17682 14.0603C8.57683 16.4244 12.4709 16.4244 14.8709 14.0603C17.2657 11.7013 17.2656 7.88065 14.871 5.52278C12.4708 3.15942 8.57572 3.15878 6.17691 5.52261L3.81711 7.84711H7.1827C7.52788 7.84711 7.8077 8.12693 7.8077 8.47211C7.8077 8.81728 7.52788 9.09711 7.1827 9.09711H2.29199C1.94681 9.09711 1.66699 8.81728 1.66699 8.47211V3.65457C1.66699 3.3094 1.94681 3.02957 2.29199 3.02957C2.63717 3.02957 2.91699 3.3094 2.91699 3.65457V6.97916L5.29963 4.63218C5.29966 4.63215 5.2996 4.6322 5.29963 4.63218Z" fill="#A7A5A5"/>
</svg>
