<svg width="18" height="18" viewBox="0 0 18 18" fill="none" xmlns="http://www.w3.org/2000/svg">
<path fill-rule="evenodd" clip-rule="evenodd" d="M4.76937 4.16896C7.36655 1.60974 11.5752 1.61098 14.1729 4.16888C16.7757 6.73175 16.7756 10.892 14.173 13.4557C11.5751 16.0148 7.3673 16.0148 4.76937 13.4557C4.54805 13.2377 4.54537 12.8816 4.76338 12.6602C4.98138 12.4389 5.33753 12.4362 5.55885 12.6542C7.71885 14.7819 11.2235 14.7819 13.3835 12.6542C15.5389 10.5312 15.5388 7.09258 13.3836 4.9705C11.2235 2.84348 7.71786 2.8429 5.55893 4.97035L3.4351 7.0624H6.46414C6.7748 7.0624 7.02664 7.31424 7.02664 7.6249C7.02664 7.93556 6.7748 8.1874 6.46414 8.1874H2.0625C1.75184 8.1874 1.5 7.93556 1.5 7.6249V3.28912C1.5 2.97846 1.75184 2.72662 2.0625 2.72662C2.37316 2.72662 2.625 2.97846 2.625 3.28912V6.28125L4.76937 4.16896C4.7694 4.16893 4.76935 4.16898 4.76937 4.16896Z" fill="#D2D1D1"/>
</svg>
