<svg width="18" height="18" viewBox="0 0 18 18" fill="none" xmlns="http://www.w3.org/2000/svg">
<path d="M14.5 3C14.7761 3 15 3.22386 15 3.5V14.5C15 14.7761 14.7761 15 14.5 15H3.5C3.22386 15 3 14.7761 3 14.5V3.5C3 3.22386 3.22386 3 3.5 3H14.5ZM4 14H14V4H4V14ZM6 11.5V6.5C6 6.22386 6.22386 6 6.5 6C6.77614 6 7 6.22386 7 6.5V11.5C7 11.7761 6.77614 12 6.5 12C6.22386 12 6 11.7761 6 11.5ZM11 11.5V6.5C11 6.22386 11.2239 6 11.5 6C11.7761 6 12 6.22386 12 6.5V11.5C12 11.7761 11.7761 12 11.5 12C11.2239 12 11 11.7761 11 11.5Z" fill="#333333"/>
</svg>
