<svg width="18" height="18" viewBox="0 0 18 18" fill="none" xmlns="http://www.w3.org/2000/svg">
<path fill-rule="evenodd" clip-rule="evenodd" d="M6.86572 4.74561C6.68668 4.56657 6.3964 4.56657 6.21736 4.74561L2.28683 8.67614C2.20085 8.76211 2.15255 8.87873 2.15255 9.00032C2.15255 9.12191 2.20085 9.23852 2.28683 9.3245L6.21736 13.255C6.3964 13.4341 6.68668 13.4341 6.86572 13.255C7.04476 13.076 7.04476 12.7857 6.86572 12.6067L3.25937 9.00032L6.86572 5.39397C7.04476 5.21493 7.04476 4.92465 6.86572 4.74561Z" fill="#333333"/>
<path fill-rule="evenodd" clip-rule="evenodd" d="M11.1343 4.74561C11.3133 4.56657 11.6036 4.56657 11.7826 4.74561L15.7132 8.67614C15.7991 8.76211 15.8474 8.87873 15.8474 9.00032C15.8474 9.12191 15.7991 9.23852 15.7132 9.3245L11.7826 13.255C11.6036 13.4341 11.3133 13.4341 11.1343 13.255C10.9552 13.076 10.9552 12.7857 11.1343 12.6067L14.7406 9.00032L11.1343 5.39397C10.9552 5.21493 10.9552 4.92465 11.1343 4.74561Z" fill="#333333"/>
</svg>
